<svg xmlns="http://www.w3.org/2000/svg" viewBox="0 0 600 252"><path d="M77.58 126.84l-14.24 14.23-14.23-14.23 14.23-14.23zm34.56-34.56l24.4 24.4 14.23-14.23-38.63-38.63-38.63 38.63 14.23 14.23zm48.8 20.33l-14.23 14.23 14.23 14.23 14.23-14.23zm-48.8 48.8L87.74 137 73.5 151.24l38.63 38.63 38.63-38.63L136.54 137zm0-20.33l14.23-14.23-14.23-14.23-14.23 14.23zm133-27.62v-.14c0-6.55-3.5-9.83-9.14-12 3.5-1.95 6.42-5 6.42-10.53v-.14c0-7.64-6.14-12.64-16.1-12.64h-22.66v48.8h23.22c11 .03 18.27-4.43 18.27-13.36zm-13.4-20.85c0 3.63-3 5.16-7.74 5.16h-9.9V87.44h10.6c4.54 0 7.05 1.8 7.05 5zm2.72 19.53c0 3.62-2.86 5.3-7.6 5.3H214.1V106.7h12.4c5.5 0 7.95 2 7.95 5.3zm33.2 14.7V78h-10.74v48.8zm57.72 0V78h-10.6v30.05L291.9 78H282v48.8h10.6v-31l23.64 31zm59.5 0L364 77.68h-9.9l-20.92 49.16h10.94l4.47-11h20.64l4.46 11zm-19.53-20.43h-13l6.5-15.83zm70.7 20.43V78h-10.6v30.05L402.58 78h-9.9v48.8h10.6v-31l23.64 31zM491.5 119l-6.83-6.9c-3.83 3.48-7.25 5.72-12.83 5.72-8.37 0-14.16-7-14.16-15.35v-.14c0-8.36 5.93-15.2 14.16-15.2 4.88 0 8.72 2.1 12.48 5.5l6.84-7.88c-4.54-4.46-10-7.53-19.25-7.53-15 0-25.45 11.37-25.45 25.24v.14a24.64 24.64 0 0 0 25 25.11c9.45-.04 15.02-3.4 20.04-8.72zm45.82 7.88v-9.55h-26.5V107h23v-9.52h-23v-9.9H537V78h-36.86v48.8zM282.06 175.6l-9.33-13.08c4.83-1.33 8.24-4.78 8.24-10.5 0-6.76-4.9-11-12.83-11h-15.4v34.55h6.08v-12h7.6l8.5 12zm-7.26-23.25c0 3.56-2.77 5.83-7.1 5.83h-8.88v-11.6h8.83c4.5 0 7.16 1.97 7.16 5.77zm41.2-11.3h-25.64v34.55h25.87v-5.43h-19.8v-9.28h17.33v-5.42h-17.33v-9H316zm14.62 9c0-2.32 2.08-4.14 5.63-4.14a15.69 15.69 0 0 1 9.38 3.55l3.26-4.6a19.19 19.19 0 0 0-12.54-4.34c-6.86 0-11.8 4.05-11.8 10.07 0 6.4 4.15 8.6 11.5 10.36 6.42 1.48 7.8 2.82 7.8 5.33 0 2.67-2.37 4.4-6.12 4.4-4.3 0-7.6-1.63-10.9-4.5l-3.65 4.34a21.3 21.3 0 0 0 14.41 5.53c7.26 0 12.34-3.85 12.34-10.37 0-5.77-3.8-8.4-11.1-10.17-6.64-1.54-8.22-2.73-8.22-5.45zm53.95-9h-25.64v34.55h25.87v-5.43H365v-9.28h17.33v-5.42H365v-9h19.55zm27.7-.25h-5.63l-15.2 34.8h6.22l3.55-8.34h16.34l3.5 8.34h6.42zm3.06 21.08h-11.9l5.92-13.82zm48.9 13.72l-9.33-13.08c4.84-1.33 8.24-4.78 8.24-10.5 0-6.76-4.88-11-12.83-11h-15.4v34.55h6.1v-12h7.6l8.5 12zm-7.26-23.25c0 3.56-2.76 5.83-7.1 5.83H441v-11.6h8.84c4.44 0 7.1 1.97 7.1 5.77zm44.93 17.73l-3.9-4c-3 2.76-5.67 4.5-9.92 4.5-6.6 0-11.4-5.53-11.4-12.34s4.8-12.24 11.4-12.24c3.95 0 6.9 1.72 9.68 4.3l3.9-4.5a18 18 0 0 0-13.53-5.38c-10.46 0-17.82 8.05-17.82 17.92s7.5 17.82 17.57 17.82c6.45.05 10.4-2.32 14-6.07zm30.46-9v14.56h6.08v-34.6h-6.08v14.37h-16.5v-14.37h-6.07v34.55h6.07v-14.56zm-294.28-5.4h-34.4v5.75h34.4z" fill="#f0b90b"/></svg>